<?xml version="1.0" standalone="no"?>
<!DOCTYPE svg PUBLIC "-//W3C//DTD SVG 20010904//EN"
 "http://www.w3.org/TR/2001/REC-SVG-20010904/DTD/svg10.dtd">
<svg version="1.0" xmlns="http://www.w3.org/2000/svg"
 width="300.000000pt" height="300.000000pt" viewBox="0 0 300.000000 300.000000"
 preserveAspectRatio="xMidYMid meet">
<metadata>
Created by potrace 1.14, written by Peter Selinger 2001-2017
</metadata>
<g transform="translate(0.000000,300.000000) scale(0.100000,-0.100000)"
fill="#000000" stroke="none">
<path d="M1285 2981 c-168 -29 -295 -71 -450 -146 -96 -47 -230 -126 -245
-145 -3 -3 -21 -17 -40 -30 -38 -27 -40 -29 -129 -115 -191 -183 -341 -451
-390 -695 -6 -30 -14 -66 -17 -80 -10 -40 -12 -367 -3 -416 5 -25 11 -66 15
-92 19 -142 119 -408 207 -547 231 -368 600 -613 1040 -691 149 -26 402 -21
547 11 14 4 36 8 50 11 59 12 242 80 325 121 148 73 252 148 370 267 123 123
219 258 286 400 41 88 92 226 83 226 -3 0 0 8 5 17 5 10 12 36 15 57 4 21 8
48 11 60 20 91 28 173 28 316 1 144 -4 200 -29 319 -75 361 -267 660 -569 884
-167 123 -372 213 -588 258 -142 29 -385 34 -522 10z m139 -445 c1 -231 -2
-313 -11 -322 -9 -8 -24 -9 -50 -4 -21 5 -39 7 -42 5 -2 -2 -11 0 -20 4 -9 5
-37 12 -62 15 -25 3 -79 15 -120 26 -41 11 -86 23 -101 26 -16 4 -28 13 -28
22 0 28 128 276 201 387 100 154 98 153 172 151 l61 -1 0 -309z m272 299 c61
-39 326 -504 302 -532 -13 -16 -100 -48 -168 -62 -91 -18 -112 -21 -187 -27
l-73 -6 0 321 0 321 53 -1 c28 -1 62 -7 73 -14z m370 -101 c70 -33 210 -114
241 -141 12 -10 40 -31 63 -47 22 -17 40 -33 40 -36 0 -15 -265 -170 -273
-159 -2 2 -33 65 -70 139 -36 74 -91 173 -122 220 -31 47 -59 88 -61 93 -7 9
105 -32 182 -69z m-1028 -31 c-59 -93 -168 -310 -168 -332 0 -6 -4 -11 -10
-11 -29 0 -280 135 -280 151 0 23 163 140 270 194 48 25 224 93 242 95 4 0
-21 -44 -54 -97z m-515 -322 c42 -28 231 -122 275 -135 26 -8 27 -17 8 -54
-56 -110 -135 -474 -128 -589 2 -27 30 -25 -286 -27 -161 0 -252 3 -253 9 -1
6 -1 13 -1 16 35 330 135 581 317 796 15 18 22 16 68 -16z m2013 10 c80 -78
181 -252 239 -411 32 -89 71 -273 74 -350 l2 -55 -261 0 c-143 0 -261 2 -261
5 -2 6 -4 23 -13 110 -13 125 -61 321 -113 468 -14 40 -24 74 -22 76 2 2 51
27 109 56 58 29 127 67 155 85 59 40 65 41 91 16z m-1300 -295 c81 -17 118
-23 164 -25 l25 -1 -1 -238 c-1 -130 -2 -241 -3 -247 -1 -8 -493 -13 -604 -6
-16 1 -18 9 -12 79 11 152 39 272 105 457 12 33 24 63 26 66 2 4 52 -10 111
-30 60 -21 144 -45 189 -55z m852 12 c67 -187 125 -526 90 -529 -7 -1 -147 -2
-310 -3 l-298 -1 0 248 0 247 23 1 c95 4 285 50 402 97 28 11 53 20 57 21 3 1
19 -36 36 -81z m-1416 -688 c0 -5 2 -27 3 -47 7 -142 51 -337 115 -512 16 -46
29 -85 28 -87 -2 -1 -46 -22 -98 -47 -52 -25 -129 -64 -169 -87 l-75 -41 -34
38 c-113 126 -242 391 -268 553 -2 14 -7 36 -10 48 -13 60 -24 172 -17 185 6
11 523 9 525 -3z m752 -237 l1 -243 -30 -1 c-92 -3 -193 -25 -358 -80 -49 -16
-90 -29 -92 -29 -10 0 -68 172 -90 263 -38 162 -60 310 -50 328 4 6 122 8 312
7 l306 -3 1 -242z m762 180 c-17 -177 -29 -233 -93 -426 -29 -88 -39 -107 -52
-101 -109 44 -284 88 -403 100 l-68 7 0 243 0 244 311 0 312 0 -7 -67z m660
-15 c-16 -225 -129 -511 -270 -683 -49 -60 -57 -66 -71 -55 -7 5 -79 44 -161
86 -82 42 -153 79 -157 83 -5 5 12 69 38 143 67 198 105 362 105 452 0 24 3
46 7 49 3 4 121 7 261 7 l254 0 -6 -82z m-1421 -856 c0 -180 -4 -332 -8 -339
-4 -6 -15 -10 -25 -8 -9 2 -36 4 -58 4 -41 1 -43 3 -96 84 -31 45 -74 115 -97
155 -50 87 -151 298 -151 316 0 7 11 18 24 24 39 18 327 85 386 90 l25 2 0
-328z m319 302 c45 -6 192 -48 236 -66 l29 -13 -83 -170 c-94 -194 -162 -315
-203 -362 -25 -29 -35 -33 -88 -35 l-60 -3 -3 336 -2 335 67 -8 c38 -4 85 -10
107 -14z m-819 -262 c33 -69 87 -172 121 -228 l61 -102 -51 15 c-120 35 -270
120 -420 236 l-58 46 70 45 c66 43 201 116 212 115 3 0 32 -57 65 -127z m1247
107 c82 -42 238 -133 238 -140 0 -12 -105 -104 -164 -143 -31 -20 -82 -50
-113 -65 -58 -29 -221 -86 -228 -79 -2 1 19 39 47 83 54 88 89 158 139 283 18
45 34 82 36 82 1 0 22 -10 45 -21z"/>
</g>
</svg>
